<svg width="29" height="29" viewBox="0 0 29 29" fill="none" xmlns="http://www.w3.org/2000/svg">
<path d="M12.2344 0H16.7656C17.5189 0 18.125 0.606055 18.125 1.35938V10.875H23.0924C24.1006 10.875 24.6047 12.0928 23.891 12.8064L15.276 21.4271C14.8512 21.852 14.1545 21.852 13.7297 21.4271L5.10332 12.8064C4.38965 12.0928 4.89375 10.875 5.90195 10.875H10.875V1.35938C10.875 0.606055 11.4811 0 12.2344 0ZM29 21.2969V27.6406C29 28.3939 28.3939 29 27.6406 29H1.35938C0.606055 29 0 28.3939 0 27.6406V21.2969C0 20.5436 0.606055 19.9375 1.35938 19.9375H9.66855L12.4439 22.7129C13.5824 23.8514 15.4176 23.8514 16.5561 22.7129L19.3314 19.9375H27.6406C28.3939 19.9375 29 20.5436 29 21.2969ZM21.9766 26.2812C21.9766 25.6582 21.4668 25.1484 20.8438 25.1484C20.2207 25.1484 19.7109 25.6582 19.7109 26.2812C19.7109 26.9043 20.2207 27.4141 20.8438 27.4141C21.4668 27.4141 21.9766 26.9043 21.9766 26.2812ZM25.6016 26.2812C25.6016 25.6582 25.0918 25.1484 24.4688 25.1484C23.8457 25.1484 23.3359 25.6582 23.3359 26.2812C23.3359 26.9043 23.8457 27.4141 24.4688 27.4141C25.0918 27.4141 25.6016 26.9043 25.6016 26.2812Z" fill="#C4C4C4"/>
</svg>
