<svg width="29" height="29" viewBox="0 0 29 29" fill="none" xmlns="http://www.w3.org/2000/svg">
<path d="M12.2344 20.8184H16.7656C17.5189 20.8184 18.125 20.0717 18.125 19.3184V10.8708H23.0924C24.1006 10.8708 24.6047 9.65298 23.891 8.9393L15.276 0.318604C14.8512 -0.106201 14.1545 -0.106201 13.7297 0.318604L5.10332 8.9393C4.38965 9.65298 4.89375 10.8708 5.90195 10.8708H10.875V19.3184C10.875 20.0717 11.4811 20.8184 12.2344 20.8184ZM29 20.6155V26.9592C29 27.7125 28.3939 28.3186 27.6406 28.3186H1.35938C0.606055 28.3186 0 27.7125 0 26.9592V20.6155C0 19.8622 0.606055 19.2561 1.35938 19.2561H9.66855L10.5 22.3184C11.6385 23.4568 17.3615 23.4568 18.5 22.3184L19.3314 19.2561H27.6406C28.3939 19.2561 29 19.8622 29 20.6155ZM21.9766 25.5999C21.9766 24.9768 21.4668 24.467 20.8438 24.467C20.2207 24.467 19.7109 24.9768 19.7109 25.5999C19.7109 26.2229 20.2207 26.7327 20.8438 26.7327C21.4668 26.7327 21.9766 26.2229 21.9766 25.5999ZM25.6016 25.5999C25.6016 24.9768 25.0918 24.467 24.4688 24.467C23.8457 24.467 23.3359 24.9768 23.3359 25.5999C23.3359 26.2229 23.8457 26.7327 24.4688 26.7327C25.0918 26.7327 25.6016 26.2229 25.6016 25.5999Z" fill="#219653"/>
</svg>
