<svg width="25" height="28" viewBox="0 0 25 28" fill="none" xmlns="http://www.w3.org/2000/svg">
<path d="M19.6429 17.5C18.3813 17.5 17.2217 17.9276 16.3064 18.6427L10.5873 15.1397C10.7566 14.389 10.7566 13.611 10.5873 12.8602L16.3064 9.35725C17.2217 10.0724 18.3813 10.5 19.6429 10.5C22.6015 10.5 25 8.14948 25 5.25C25 2.35052 22.6015 0 19.6429 0C16.6842 0 14.2857 2.35052 14.2857 5.25C14.2857 5.64145 14.3298 6.02273 14.4127 6.38974L8.69364 9.8927C7.77829 9.1776 6.61875 8.75 5.35714 8.75C2.39849 8.75 0 11.1005 0 14C0 16.8995 2.39849 19.25 5.35714 19.25C6.61875 19.25 7.77829 18.8224 8.69364 18.1073L14.4127 21.6103C14.3282 21.9845 14.2856 22.3667 14.2857 22.75C14.2857 25.6495 16.6842 28 19.6429 28C22.6015 28 25 25.6495 25 22.75C25 19.8505 22.6015 17.5 19.6429 17.5Z" fill="#2F80ED"/>
</svg>
